<svg xmlns="http://www.w3.org/2000/svg" viewBox="0 0 419.3 46.8"><path d="M8.9 28.7v13.9H19c.7 0 1.2.1 1.5.4.3.3.5.6.5 1.1 0 .4-.2.8-.5 1.1-.3.3-.8.4-1.5.4H2c-.7 0-1.2-.1-1.5-.4-.3-.3-.5-.7-.5-1.1 0-.4.2-.8.5-1.1.3-.3.8-.4 1.5-.4h4V7.4H2C1.3 7.4.8 7.3.5 7 .2 6.7 0 6.4 0 5.9c0-.4.2-.8.5-1.1.3-.2.8-.3 1.5-.3h17.2c4.1 0 7.4 1.2 9.9 3.6s3.8 5.2 3.8 8.4c0 1.9-.4 3.6-1.2 5.1-.8 1.5-1.8 2.7-3 3.6-1.8 1.3-3.6 2.3-5.4 2.9-1.4.4-3 .7-5.1.7H8.9zm0-2.9h9.4c2.2 0 4.2-.5 6.1-1.5 1.9-1 3.3-2.2 4.2-3.6s1.3-2.8 1.3-4.3c0-2.3-1-4.4-3-6.3-2-1.9-4.5-2.8-7.6-2.8H8.9v18.5zM67 45.6v-4.3c-4.3 3.6-8.9 5.4-13.7 5.4-3.5 0-6.3-.9-8.3-2.7-2-1.8-3-4-3-6.6 0-2.9 1.3-5.4 3.9-7.5 2.6-2.1 6.5-3.2 11.5-3.2 1.4 0 2.8.1 4.4.3 1.6.2 3.3.5 5.2.8V23c0-1.6-.8-3-2.3-4.2-1.5-1.2-3.8-1.8-6.8-1.8-2.3 0-5.5.7-9.7 2-.8.2-1.2.4-1.4.4-.4 0-.7-.1-1-.4-.3-.3-.4-.6-.4-1.1 0-.4.1-.7.4-.9.3-.4 1.7-.8 4-1.4 3.7-1 6.4-1.5 8.3-1.5 3.7 0 6.6.9 8.7 2.8 2.1 1.8 3.1 3.9 3.1 6.2v19.5h3.9c.7 0 1.2.1 1.5.4.3.3.5.6.5 1.1 0 .4-.2.8-.5 1.1-.3.3-.8.4-1.5.4H67zm0-14.7c-1.4-.4-2.8-.7-4.4-.9-1.5-.2-3.2-.3-4.9-.3-4.3 0-7.6.9-10.1 2.8-1.8 1.4-2.7 3-2.7 5 0 1.8.7 3.3 2.1 4.5 1.4 1.2 3.4 1.8 6.1 1.8 2.6 0 4.9-.5 7.1-1.5 2.2-1 4.4-2.6 6.8-4.9v-6.5zm25.2-15.7v4.5c2.1-2.1 3.9-3.5 5.6-4.3 1.7-.8 3.5-1.2 5.6-1.2 2.3 0 4.3.5 6.2 1.4 1.3.7 2.5 1.9 3.6 3.5s1.6 3.3 1.6 5v18.6h2.5c.7 0 1.2.1 1.5.4.3.3.5.6.5 1.1 0 .4-.2.8-.5 1.1-.3.3-.8.4-1.5.4h-7.9c-.7 0-1.2-.1-1.5-.4-.3-.3-.5-.6-.5-1.1 0-.4.2-.8.5-1.1.3-.3.8-.4 1.5-.4h2.5V24.5c0-2.1-.8-3.8-2.3-5.3-1.5-1.4-3.6-2.2-6.1-2.2-1.9 0-3.6.4-5.1 1.2-1.4.8-3.5 2.7-6.1 5.9v18.5h3.3c.7 0 1.2.1 1.5.4.3.3.5.6.5 1.1 0 .4-.2.8-.5 1.1-.3.3-.8.4-1.5.4H86c-.7 0-1.2-.1-1.5-.4-.3-.3-.5-.6-.5-1.1 0-.4.2-.8.5-1.1.3-.3.8-.4 1.5-.4h3.3V18.1h-2.5c-.7 0-1.2-.1-1.5-.4-.3-.3-.5-.6-.5-1.1 0-.4.2-.8.5-1.1.3-.3.8-.4 1.5-.4h5.4zm67.2-13.7v41.2h3.9c.7 0 1.2.1 1.5.4.3.3.5.6.5 1.1 0 .4-.2.8-.5 1.1-.3.3-.8.4-1.5.4h-6.9v-5.9c-3.4 4.7-7.8 7-13 7-2.7 0-5.2-.7-7.7-2.1-2.4-1.4-4.4-3.4-5.8-6.1-1.4-2.6-2.1-5.3-2.1-8.1s.7-5.5 2.1-8.1c1.4-2.6 3.4-4.6 5.8-6.1 2.4-1.4 5-2.1 7.7-2.1 5.2 0 9.5 2.3 13 7V4.5h-3.9c-.7 0-1.2-.1-1.5-.4-.3-.3-.5-.6-.5-1.1 0-.4.2-.8.5-1.1.3-.3.8-.4 1.5-.4h6.9zm-3 28.9c0-3.7-1.3-6.9-3.8-9.5-2.5-2.6-5.5-3.9-9-3.9s-6.5 1.3-9.1 3.9c-2.5 2.6-3.8 5.7-3.8 9.5 0 3.7 1.3 6.9 3.8 9.5 2.5 2.6 5.6 3.9 9.1 3.9s6.5-1.3 9-3.9c2.5-2.6 3.8-5.7 3.8-9.5zm40.2 15.2v-4.3c-4.3 3.6-8.9 5.4-13.7 5.4-3.5 0-6.3-.9-8.3-2.7-2-1.8-3-4-3-6.6 0-2.9 1.3-5.4 3.9-7.5 2.6-2.1 6.5-3.2 11.5-3.2 1.4 0 2.8.1 4.4.3 1.6.2 3.3.5 5.2.8V23c0-1.6-.8-3-2.3-4.2-1.5-1.2-3.8-1.8-6.8-1.8-2.3 0-5.5.7-9.7 2-.8.2-1.2.4-1.4.4-.4 0-.7-.1-1-.4-.3-.3-.4-.6-.4-1.1 0-.4.1-.7.4-.9.3-.4 1.7-.8 4-1.4 3.7-1 6.4-1.5 8.3-1.5 3.7 0 6.6.9 8.7 2.8 2.1 1.8 3.1 3.9 3.1 6.2v19.5h3.9c.7 0 1.2.1 1.5.4.3.3.5.6.5 1.1 0 .4-.2.8-.5 1.1-.3.3-.8.4-1.5.4h-6.8zm0-14.7c-1.4-.4-2.8-.7-4.4-.9-1.5-.2-3.2-.3-4.9-.3-4.3 0-7.6.9-10.1 2.8-1.8 1.4-2.7 3-2.7 5 0 1.8.7 3.3 2.1 4.5 1.4 1.2 3.4 1.8 6.1 1.8 2.6 0 4.9-.5 7.1-1.5 2.2-1 4.4-2.6 6.8-4.9v-6.5zm34.1 6.2h1.3c1.3 0 2.4.5 3.4 1.4.9.9 1.4 2 1.4 3.4s-.5 2.5-1.4 3.4-2.1 1.4-3.4 1.4h-1.3c-1.3 0-2.4-.5-3.4-1.4-.9-.9-1.4-2-1.4-3.4s.5-2.5 1.4-3.4 2.1-1.4 3.4-1.4zm54 8.5H281l-6.5-19-6.5 19h-3.7l-6.1-27.5h-1.4c-.7 0-1.2-.1-1.5-.4-.3-.3-.5-.6-.5-1.1 0-.4.2-.8.5-1.1.3-.3.8-.4 1.5-.4h8.1c.7 0 1.2.1 1.5.4.3.3.5.6.5 1.1 0 .4-.2.8-.5 1.1-.3.3-.8.4-1.5.4h-3.8l5.2 23.4 6.3-18.7h3.5l6.5 18.7 5-23.4h-3.7c-.7 0-1.2-.1-1.5-.4s-.5-.6-.5-1.1c0-.4.2-.8.5-1.1s.8-.4 1.5-.4h8.1c.7 0 1.2.1 1.5.4s.5.6.5 1.1c0 .4-.2.8-.5 1.1s-.8.4-1.5.4h-1.4l-5.9 27.5zm34.6-30.4v27.5h11.6c.7 0 1.2.1 1.5.4.3.3.5.6.5 1.1 0 .4-.2.8-.5 1.1s-.8.4-1.5.4h-26.2c-.7 0-1.2-.1-1.5-.4s-.5-.6-.5-1.1c0-.4.2-.8.5-1.1.3-.3.8-.4 1.5-.4h11.6V18.1h-8.6c-.7 0-1.2-.1-1.5-.4s-.5-.6-.5-1.1c0-.4.2-.8.5-1.1s.8-.4 1.5-.4h11.6zM319.2 0v7.6h-4.4V0h4.4zM355 32.4v13.1h-7c-.7 0-1.2-.1-1.5-.4s-.5-.6-.5-1.1c0-.4.2-.8.5-1.1.3-.3.8-.4 1.5-.4h4v-38h-4c-.7 0-1.2-.1-1.5-.4s-.5-.6-.5-1.1c0-.4.2-.8.5-1.1s.8-.4 1.5-.4h6.9v27.2l12.6-10.5H366c-.7 0-1.2-.1-1.5-.4s-.5-.6-.5-1.1c0-.4.2-.8.5-1.1s.8-.4 1.5-.4h9.5c.7 0 1.2.1 1.5.4s.5.6.5 1.1c0 .4-.2.8-.5 1.1s-.8.4-1.5.4h-3.4l-11.5 9.6 14.6 14.9h3.4c.7 0 1.2.1 1.5.4.3.3.5.6.5 1.1 0 .4-.2.8-.5 1.1s-.8.4-1.5.4H369c-.7 0-1.2-.1-1.5-.4s-.5-.6-.5-1.1c0-.4.2-.8.5-1.1.3-.3.8-.4 1.5-.4h2.1l-12.7-13-3.4 2.7zm50.7-17.2v27.5h11.6c.7 0 1.2.1 1.5.4.3.3.5.6.5 1.1 0 .4-.2.8-.5 1.1s-.8.4-1.5.4h-26.2c-.7 0-1.2-.1-1.5-.4s-.5-.6-.5-1.1c0-.4.2-.8.5-1.1.3-.3.8-.4 1.5-.4h11.6V18.1h-8.6c-.7 0-1.2-.1-1.5-.4s-.5-.6-.5-1.1c0-.4.2-.8.5-1.1s.8-.4 1.5-.4h11.6zM405.6 0v7.6h-4.4V0h4.4z"/></svg>