<svg xmlns="http://www.w3.org/2000/svg">
	<defs>
		<symbol viewBox="0 0 419.3 46.8" id="icon_logo">
			<path d="M8.9 28.7v13.9H19c.7 0 1.2.1 1.5.4.3.3.5.6.5 1.1 0 .4-.2.8-.5 1.1-.3.3-.8.4-1.5.4H2c-.7 0-1.2-.1-1.5-.4-.3-.3-.5-.7-.5-1.1 0-.4.2-.8.5-1.1.3-.3.8-.4 1.5-.4h4V7.4H2C1.3 7.4.8 7.3.5 7 .2 6.7 0 6.4 0 5.9c0-.4.2-.8.5-1.1.3-.2.8-.3 1.5-.3h17.2c4.1 0 7.4 1.2 9.9 3.6s3.8 5.2 3.8 8.4c0 1.9-.4 3.6-1.2 5.1-.8 1.5-1.8 2.7-3 3.6-1.8 1.3-3.6 2.3-5.4 2.9-1.4.4-3 .7-5.1.7H8.9zm0-2.9h9.4c2.2 0 4.2-.5 6.1-1.5 1.9-1 3.3-2.2 4.2-3.6s1.3-2.8 1.3-4.3c0-2.3-1-4.4-3-6.3-2-1.9-4.5-2.8-7.6-2.8H8.9v18.5zM67 45.6v-4.3c-4.3 3.6-8.9 5.4-13.7 5.4-3.5 0-6.3-.9-8.3-2.7-2-1.8-3-4-3-6.6 0-2.9 1.3-5.4 3.9-7.5 2.6-2.1 6.5-3.2 11.5-3.2 1.4 0 2.8.1 4.4.3 1.6.2 3.3.5 5.2.8V23c0-1.6-.8-3-2.3-4.2-1.5-1.2-3.8-1.8-6.8-1.8-2.3 0-5.5.7-9.7 2-.8.2-1.2.4-1.4.4-.4 0-.7-.1-1-.4-.3-.3-.4-.6-.4-1.1 0-.4.1-.7.4-.9.3-.4 1.7-.8 4-1.4 3.7-1 6.4-1.5 8.3-1.5 3.7 0 6.6.9 8.7 2.8 2.1 1.8 3.1 3.9 3.1 6.2v19.5h3.9c.7 0 1.2.1 1.5.4.3.3.5.6.5 1.1 0 .4-.2.8-.5 1.1-.3.3-.8.4-1.5.4H67zm0-14.7c-1.4-.4-2.8-.7-4.4-.9-1.5-.2-3.2-.3-4.9-.3-4.3 0-7.6.9-10.1 2.8-1.8 1.4-2.7 3-2.7 5 0 1.8.7 3.3 2.1 4.5 1.4 1.2 3.4 1.8 6.1 1.8 2.6 0 4.9-.5 7.1-1.5 2.2-1 4.4-2.6 6.8-4.9v-6.5zm25.2-15.7v4.5c2.1-2.1 3.9-3.5 5.6-4.3 1.7-.8 3.5-1.2 5.6-1.2 2.3 0 4.3.5 6.2 1.4 1.3.7 2.5 1.9 3.6 3.5s1.6 3.3 1.6 5v18.6h2.5c.7 0 1.2.1 1.5.4.3.3.5.6.5 1.1 0 .4-.2.8-.5 1.1-.3.3-.8.4-1.5.4h-7.9c-.7 0-1.2-.1-1.5-.4-.3-.3-.5-.6-.5-1.1 0-.4.2-.8.5-1.1.3-.3.8-.4 1.5-.4h2.5V24.5c0-2.1-.8-3.8-2.3-5.3-1.5-1.4-3.6-2.2-6.1-2.2-1.9 0-3.6.4-5.1 1.2-1.4.8-3.5 2.7-6.1 5.9v18.5h3.3c.7 0 1.2.1 1.5.4.3.3.5.6.5 1.1 0 .4-.2.8-.5 1.1-.3.3-.8.4-1.5.4H86c-.7 0-1.2-.1-1.5-.4-.3-.3-.5-.6-.5-1.1 0-.4.2-.8.5-1.1.3-.3.8-.4 1.5-.4h3.3V18.1h-2.5c-.7 0-1.2-.1-1.5-.4-.3-.3-.5-.6-.5-1.1 0-.4.2-.8.5-1.1.3-.3.8-.4 1.5-.4h5.4zm67.2-13.7v41.2h3.9c.7 0 1.2.1 1.5.4.3.3.5.6.5 1.1 0 .4-.2.8-.5 1.1-.3.3-.8.4-1.5.4h-6.9v-5.9c-3.4 4.7-7.8 7-13 7-2.7 0-5.2-.7-7.7-2.1-2.4-1.4-4.4-3.4-5.8-6.1-1.4-2.6-2.1-5.3-2.1-8.1s.7-5.5 2.1-8.1c1.4-2.6 3.4-4.6 5.8-6.1 2.4-1.4 5-2.1 7.7-2.1 5.2 0 9.5 2.3 13 7V4.5h-3.9c-.7 0-1.2-.1-1.5-.4-.3-.3-.5-.6-.5-1.1 0-.4.2-.8.5-1.1.3-.3.8-.4 1.5-.4h6.9zm-3 28.9c0-3.7-1.3-6.9-3.8-9.5-2.5-2.6-5.5-3.9-9-3.9s-6.5 1.3-9.1 3.9c-2.5 2.6-3.8 5.7-3.8 9.5 0 3.7 1.3 6.9 3.8 9.5 2.5 2.6 5.6 3.9 9.1 3.9s6.5-1.3 9-3.9c2.5-2.6 3.8-5.7 3.8-9.5zm40.2 15.2v-4.3c-4.3 3.6-8.9 5.4-13.7 5.4-3.5 0-6.3-.9-8.3-2.7-2-1.8-3-4-3-6.6 0-2.9 1.3-5.4 3.9-7.5 2.6-2.1 6.5-3.2 11.5-3.2 1.4 0 2.8.1 4.4.3 1.6.2 3.3.5 5.2.8V23c0-1.6-.8-3-2.3-4.2-1.5-1.2-3.8-1.8-6.8-1.8-2.3 0-5.5.7-9.7 2-.8.2-1.2.4-1.4.4-.4 0-.7-.1-1-.4-.3-.3-.4-.6-.4-1.1 0-.4.1-.7.4-.9.3-.4 1.7-.8 4-1.4 3.7-1 6.4-1.5 8.3-1.5 3.7 0 6.6.9 8.7 2.8 2.1 1.8 3.1 3.9 3.1 6.2v19.5h3.9c.7 0 1.2.1 1.5.4.3.3.5.6.5 1.1 0 .4-.2.8-.5 1.1-.3.3-.8.4-1.5.4h-6.8zm0-14.7c-1.4-.4-2.8-.7-4.4-.9-1.5-.2-3.2-.3-4.9-.3-4.3 0-7.6.9-10.1 2.8-1.8 1.4-2.7 3-2.7 5 0 1.8.7 3.3 2.1 4.5 1.4 1.2 3.4 1.8 6.1 1.8 2.6 0 4.9-.5 7.1-1.5 2.2-1 4.4-2.6 6.8-4.9v-6.5zm34.1 6.2h1.3c1.3 0 2.4.5 3.4 1.4.9.9 1.4 2 1.4 3.4s-.5 2.5-1.4 3.4-2.1 1.4-3.4 1.4h-1.3c-1.3 0-2.4-.5-3.4-1.4-.9-.9-1.4-2-1.4-3.4s.5-2.5 1.4-3.4 2.1-1.4 3.4-1.4zm54 8.5H281l-6.5-19-6.5 19h-3.7l-6.1-27.5h-1.4c-.7 0-1.2-.1-1.5-.4-.3-.3-.5-.6-.5-1.1 0-.4.2-.8.5-1.1.3-.3.8-.4 1.5-.4h8.1c.7 0 1.2.1 1.5.4.3.3.5.6.5 1.1 0 .4-.2.8-.5 1.1-.3.3-.8.4-1.5.4h-3.8l5.2 23.4 6.3-18.7h3.5l6.5 18.7 5-23.4h-3.7c-.7 0-1.2-.1-1.5-.4s-.5-.6-.5-1.1c0-.4.2-.8.5-1.1s.8-.4 1.5-.4h8.1c.7 0 1.2.1 1.5.4s.5.6.5 1.1c0 .4-.2.8-.5 1.1s-.8.4-1.5.4h-1.4l-5.9 27.5zm34.6-30.4v27.5h11.6c.7 0 1.2.1 1.5.4.3.3.5.6.5 1.1 0 .4-.2.8-.5 1.1s-.8.4-1.5.4h-26.2c-.7 0-1.2-.1-1.5-.4s-.5-.6-.5-1.1c0-.4.2-.8.5-1.1.3-.3.8-.4 1.5-.4h11.6V18.1h-8.6c-.7 0-1.2-.1-1.5-.4s-.5-.6-.5-1.1c0-.4.2-.8.5-1.1s.8-.4 1.5-.4h11.6zM319.2 0v7.6h-4.4V0h4.4zM355 32.4v13.1h-7c-.7 0-1.2-.1-1.5-.4s-.5-.6-.5-1.1c0-.4.2-.8.5-1.1.3-.3.8-.4 1.5-.4h4v-38h-4c-.7 0-1.2-.1-1.5-.4s-.5-.6-.5-1.1c0-.4.2-.8.5-1.1s.8-.4 1.5-.4h6.9v27.2l12.6-10.5H366c-.7 0-1.2-.1-1.5-.4s-.5-.6-.5-1.1c0-.4.2-.8.5-1.1s.8-.4 1.5-.4h9.5c.7 0 1.2.1 1.5.4s.5.6.5 1.1c0 .4-.2.8-.5 1.1s-.8.4-1.5.4h-3.4l-11.5 9.6 14.6 14.9h3.4c.7 0 1.2.1 1.5.4.3.3.5.6.5 1.1 0 .4-.2.8-.5 1.1s-.8.4-1.5.4H369c-.7 0-1.2-.1-1.5-.4s-.5-.6-.5-1.1c0-.4.2-.8.5-1.1.3-.3.8-.4 1.5-.4h2.1l-12.7-13-3.4 2.7zm50.7-17.2v27.5h11.6c.7 0 1.2.1 1.5.4.3.3.5.6.5 1.1 0 .4-.2.8-.5 1.1s-.8.4-1.5.4h-26.2c-.7 0-1.2-.1-1.5-.4s-.5-.6-.5-1.1c0-.4.2-.8.5-1.1.3-.3.8-.4 1.5-.4h11.6V18.1h-8.6c-.7 0-1.2-.1-1.5-.4s-.5-.6-.5-1.1c0-.4.2-.8.5-1.1s.8-.4 1.5-.4h11.6zM405.6 0v7.6h-4.4V0h4.4z"/>
		</symbol>
		<symbol viewBox="0 0 80.5 84.2" id="icon_type-post">
			<path d="M0 7.3v54.9c0 4 3.4 7.3 7.5 7.3h12.6L30 82.7c.7.9 1.8 1.5 2.9 1.5 1.2 0 2.2-.5 2.9-1.5l9.9-13.2H73c4.1 0 7.5-3.3 7.5-7.3V7.3c0-4-3.4-7.3-7.5-7.3H7.5C3.4 0 0 3.3 0 7.3zm7.3 0H73l.2 54.9H43.9c-1.2 0-2.2.5-2.9 1.5l-8 10.7-8.1-10.7c-.7-.9-1.8-1.5-2.9-1.5H7.5L7.3 7.3zm7.3 16.3h51.3v-7.3H14.6v7.3zm0 14.6h51.3v-7.3H14.6v7.3zm0 14.7h51.3v-7.3H14.6v7.3z"/>
		</symbol>
		<symbol viewBox="0 0 16 16" id="icon_type-image">
			<path d="M16 2v12c0 1.1-.9 2-2 2H2c-1.1 0-2-.9-2-2V2C0 .9.9 0 2 0h12c1.1 0 2 .9 2 2zm-2 0H2v6.4l2.2-2.2 5.2 5.2 1-1c.6-.5 1.6-.4 2.1.1L14 12V2zM9 5.5c0-.8.7-1.5 1.5-1.5s1.5.7 1.5 1.5S11.3 7 10.5 7 9 6.3 9 5.5z"/>
		</symbol>
		<symbol viewBox="0 0 10 12" id="icon_type-user">
			<path d="M5 6c1.7 0 3-1.3 3-3S6.7 0 5 0 2 1.3 2 3s1.3 3 3 3zm2 1H3c-1.7 0-3 1.3-3 3v2h10v-2c0-1.7-1.3-3-3-3z"/>
		</symbol>
		<symbol viewBox="0 0 562.5 875" id="icon_type-attachment">
			<path d="M356.3 0c-106.3 0-200 93.8-200 200v362.5c0 68.8 56.3 125 125 125s125-56.3 125-125V250h-93.8v312.5c0 18.8-12.5 31.3-31.3 31.3S250 581.3 250 562.5V200c0-62.5 50-112.5 112.5-112.5S468.8 143.8 468.8 200v387.5c0 106.2-81.3 187.5-187.5 187.5S93.8 693.7 93.8 587.5V250H0v343.8C0 750 125 875 281.3 875s281.3-125 281.3-281.3V200C562.5 93.8 468.8 0 356.3 0z"/>
		</symbol>
		<symbol viewBox="0 0 1792 1792" id="icon_search">
			<path d="M1216 832q0-185-131.5-316.5T768 384 451.5 515.5 320 832t131.5 316.5T768 1280t316.5-131.5T1216 832zm512 832q0 52-38 90t-90 38q-54 0-90-38l-343-342q-179 124-399 124-143 0-273.5-55.5t-225-150-150-225T64 832t55.5-273.5 150-225 225-150T768 128t273.5 55.5 225 150 150 225T1472 832q0 220-124 399l343 343q37 37 37 90z"/>
		</symbol>
		<symbol viewBox="0 0 456.8 438.5" id="icon_thumb-up">
			<path d="M441.1 243.5c10.5-12 15.7-26.2 15.7-42.5 0-14.8-5.4-27.7-16.3-38.5-10.8-10.9-23.7-16.3-38.5-16.3h-79.1c.8-2.7 1.5-4.9 2.3-6.9.8-1.9 1.8-4 3.1-6.3s2.3-4 2.9-5.1c3.4-6.5 6-11.8 7.9-16 1.8-4.2 3.6-9.9 5.4-17.1 1.8-7.2 2.7-14.5 2.7-21.7 0-4.6-.1-8.3-.1-11.1-.1-2.9-.6-7.1-1.4-12.8-.9-5.7-2-10.5-3.4-14.3-1.4-3.8-3.7-8.1-6.9-12.8-3.1-4.8-6.9-8.6-11.4-11.6s-10.2-5.4-17.1-7.4c-7-2-14.8-3-23.6-3-4.9 0-9.2 1.8-12.8 5.4-3.8 3.8-7 8.6-9.7 14.3-2.7 5.7-4.5 10.7-5.6 14.8-1 4.2-2.2 10-3.6 17.4-1.7 8-3 13.8-3.9 17.3-.9 3.5-2.5 8.1-5 13.8-2.5 5.7-5.4 10.3-8.9 13.7-6.3 6.3-15.9 17.7-28.8 34.3-9.3 12.2-18.9 23.7-28.8 34.5-9.9 10.9-17.1 16.5-21.7 16.8-4.8.4-8.8 2.3-12.3 5.9-3.4 3.5-5.1 7.7-5.1 12.4v183c0 4.9 1.8 9.2 5.4 12.7 3.6 3.5 7.9 5.4 12.8 5.6 6.7.2 21.7 4.4 45.1 12.6 14.7 4.9 26.1 8.7 34.4 11.3 8.3 2.6 19.8 5.3 34.7 8.3 14.8 2.9 28.6 4.4 41.1 4.4h36.9c25.3-.4 44.1-7.8 56.2-22.3 11-13.1 15.7-30.4 14-51.7 7.4-7 12.6-16 15.4-26.8 3.2-11.6 3.2-22.7 0-33.4 8.8-11.6 12.8-24.6 12.3-39.1 0-6.2-1.4-13.4-4.3-21.8zm-340.6-60.8H18.3c-5 0-9.2 1.8-12.9 5.4-3.6 3.7-5.4 8-5.4 12.9v182.7c0 4.9 1.8 9.2 5.4 12.8 3.6 3.6 7.9 5.4 12.9 5.4h82.2c4.9 0 9.2-1.8 12.8-5.4 3.6-3.6 5.4-7.9 5.4-12.8V201c0-4.9-1.8-9.2-5.4-12.8-3.6-3.7-7.9-5.5-12.8-5.5z"/>
		</symbol>
		<symbol viewBox="0 0 24 24" id="icon_plus">
			<path d="M23 10h-8.5c-.3 0-.5-.2-.5-.5V1c0-.6-.4-1-1-1h-2c-.6 0-1 .4-1 1v8.5c0 .3-.2.5-.5.5H1c-.6 0-1 .4-1 1v2c0 .6.4 1 1 1h8.5c.3 0 .5.2.5.5V23c0 .6.4 1 1 1h2c.6 0 1-.4 1-1v-8.5c0-.3.2-.5.5-.5H23c.6 0 1-.4 1-1v-2c0-.6-.4-1-1-1z"/>
		</symbol>
		<symbol viewBox="0 0 430.117 430.118" id="icon_share">
			<path d="M151.804 215.059c0 1.475-.336 2.856-.423 4.326l154.111 77.03c13.194-11.173 30.075-18.146 48.725-18.146 41.925.009 75.9 33.985 75.9 75.905 0 41.967-33.976 75.942-75.9 75.942-41.961 0-75.9-33.976-75.9-75.942 0-1.512.336-2.861.42-4.326l-154.111-77.035c-13.234 11.131-30.075 18.104-48.725 18.104-41.922 0-75.9-33.938-75.9-75.858 0-41.962 33.979-75.945 75.9-75.945 18.649 0 35.496 7.017 48.725 18.148l154.111-77.035c-.084-1.473-.42-2.858-.42-4.368 0-41.88 33.939-75.859 75.9-75.859 41.925 0 75.9 33.979 75.9 75.859 0 41.959-33.976 75.945-75.9 75.945-18.691 0-35.539-7.017-48.725-18.19l-154.111 77.077c.082 1.472.423 2.858.423 4.368z"/>
		</symbol>
		<symbol viewBox="0 0 426.667 426.667" id="icon_checked-yt">
			<path d="M213.333 0C95.518 0 0 95.514 0 213.333s95.518 213.333 213.333 213.333c117.828 0 213.333-95.514 213.333-213.333S331.157 0 213.333 0zm-39.134 322.918l-93.935-93.931 31.309-31.309 62.626 62.622 140.894-140.898 31.309 31.309-172.203 172.207z"/>
		</symbol>
		<symbol viewBox="0 0 2048 1792" id="icon_post-vk">
			<path d="m1981,520q23,64 -150,294q-24,32 -65,85q-40,51 -55,72t-30.5,49.5t-12,42t13,34.5t32.5,43t57,53q4,2 5,4q141,131 191,221q3,5 6.5,12.5t7,26.5t-0.5,34t-25,27.5t-59,12.5l-256,4q-24,5 -56,-5t-52,-22l-20,-12q-30,-21 -70,-64t-68.5,-77.5t-61,-58t-56.5,-15.5q-3,1 -8,3.5t-17,14.5t-21.5,29.5t-17,52t-6.5,77.5q0,15 -3.5,27.5t-7.5,18.5l-4,5q-18,19 -53,22l-115,0q-71,4 -146,-16.5t-131.5,-53t-103,-66t-70.5,-57.5l-25,-24q-10,-10 -27.5,-30t-71.5,-91t-106,-151t-122.5,-211t-130.5,-272q-6,-16 -6,-27t3,-16l4,-6q15,-19 57,-19l274,-2q12,2 23,6.5t16,8.5l5,3q16,11 24,32q20,50 46,103.5t41,81.5l16,29q29,60 56,104t48.5,68.5t41.5,38.5t34,14t27,-5q2,-1 5,-5t12,-22t13.5,-47t9.5,-81t0,-125q-2,-40 -9,-73t-14,-46l-6,-12q-25,-34 -85,-43q-13,-2 5,-24q16,-19 38,-30q53,-26 239,-24q82,1 135,13q20,5 33.5,13.5t20.5,24t10.5,32t3.5,45.5t-1,55t-2.5,70.5t-1.5,82.5q0,11 -1,42t-0.5,48t3.5,40.5t11.5,39t22.5,24.5q8,2 17,4t26,-11t38,-34.5t52,-67t68,-107.5q60,-104 107,-225q4,-10 10,-17.5t11,-10.5l4,-3l5,-2.5l13,-3l20,-0.5l288,-2q39,-5 64,2.5t31,16.5l6,10z"/>
		</symbol>
		<symbol viewBox="0 0 1792 1792" id ="icon_post-fb">
			<path d="M1343 12v264h-157q-86 0-116 36t-30 108v189h293l-39 296h-254v759H734V905H479V609h255V391q0-186 104-288.5T1115 0q147 0 228 12z"/>
		</symbol>
		<symbol viewBox="0 0 1792 1792" id ="icon_post-tw">
			<path d="M1684 408q-67 98-162 167 1 14 1 42 0 130-38 259.5T1369.5 1125 1185 1335.5t-258 146-323 54.5q-271 0-496-145 35 4 78 4 225 0 401-138-105-2-188-64.5T285 1033q33 5 61 5 43 0 85-11-112-23-185.5-111.5T172 710v-4q68 38 146 41-66-44-105-115t-39-154q0-88 44-163 121 149 294.5 238.5T884 653q-8-38-8-74 0-134 94.5-228.5T1199 256q140 0 236 102 109-21 205-78-37 115-142 178 93-10 186-50z"/>
		</symbol>
		<symbol viewBox="0 0 1792 1792" id ="icon_post-yt">
			<path d="M711 1128l484-250-484-253v503zm185-862q168 0 324.5 4.5T1450 280l73 4q1 0 17 1.5t23 3 23.5 4.5 28.5 8 28 13 31 19.5 29 26.5q6 6 15.5 18.5t29 58.5 26.5 101q8 64 12.5 136.5T1792 788v176q1 145-18 290-7 55-25 99.5t-32 61.5l-14 17q-14 15-29 26.5t-31 19-28 12.5-28.5 8-24 4.5-23 3-16.5 1.5q-251 19-627 19-207-2-359.5-6.5T336 1512l-49-4-36-4q-36-5-54.5-10t-51-21-56.5-41q-6-6-15.5-18.5t-29-58.5T18 1254q-8-64-12.5-136.5T0 1004V828q-1-145 18-290 7-55 25-99.5T75 377l14-17q14-15 29-26.5t31-19.5 28-13 28.5-8 23.5-4.5 23-3 17-1.5q251-18 627-18z"/>
		</symbol>
		<symbol viewBox="0 0 1792 1792" id ="icon_post-ig">
			<path d="M1152 896q0-106-75-181t-181-75-181 75-75 181 75 181 181 75 181-75 75-181zm138 0q0 164-115 279t-279 115-279-115-115-279 115-279 279-115 279 115 115 279zm108-410q0 38-27 65t-65 27-65-27-27-65 27-65 65-27 65 27 27 65zM896 266q-7 0-76.5-.5t-105.5 0-96.5 3-103 10T443 297q-50 20-88 58t-58 88q-11 29-18.5 71.5t-10 103-3 96.5 0 105.5.5 76.5-.5 76.5 0 105.5 3 96.5 10 103T297 1349q20 50 58 88t88 58q29 11 71.5 18.5t103 10 96.5 3 105.5 0 76.5-.5 76.5.5 105.5 0 96.5-3 103-10 71.5-18.5q50-20 88-58t58-88q11-29 18.5-71.5t10-103 3-96.5 0-105.5-.5-76.5.5-76.5 0-105.5-3-96.5-10-103T1495 443q-20-50-58-88t-88-58q-29-11-71.5-18.5t-103-10-96.5-3-105.5 0-76.5.5zm768 630q0 229-5 317-10 208-124 322t-322 124q-88 5-317 5t-317-5q-208-10-322-124t-124-322q-5-88-5-317t5-317q10-208 124-322t322-124q88-5 317-5t317 5q208 10 322 124t124 322q5 88 5 317z"/>
		</symbol>
		<symbol viewBox="0 0 2304 1792" id ="icon_post-gp">
			<path d="M1437 913q0 208-87 370.5t-248 254-369 91.5q-149 0-285-58t-234-156-156-234T0 896t58-285 156-234 234-156 285-58q286 0 491 192l-199 191Q908 433 733 433q-123 0-227.5 62T340 663.5 279 896t61 232.5T505.5 1297t227.5 62q83 0 152.5-23t114.5-57.5 78.5-78.5 49-83 21.5-74H733V791h692q12 63 12 122zm867-122v210h-209v209h-210v-209h-209V791h209V582h210v209h209z"/>
		</symbol>
	</defs>
</svg>