<?xml version="1.0" encoding="utf-8"?>
<!-- Generator: Adobe Illustrator 21.0.2, SVG Export Plug-In . SVG Version: 6.00 Build 0)  -->
<svg version="1.1" id="Layer_1" xmlns="http://www.w3.org/2000/svg" xmlns:xlink="http://www.w3.org/1999/xlink" x="0px" y="0px"
	 viewBox="0 0 419.3 46.8" style="enable-background:new 0 0 419.3 46.8;" xml:space="preserve">
<g>
	<path d="M8.9,28.7v13.9H19c0.7,0,1.2,0.1,1.5,0.4c0.3,0.3,0.5,0.6,0.5,1.1c0,0.4-0.2,0.8-0.5,1.1c-0.3,0.3-0.8,0.4-1.5,0.4H2
		c-0.7,0-1.2-0.1-1.5-0.4C0.2,44.9,0,44.5,0,44.1c0-0.4,0.2-0.8,0.5-1.1c0.3-0.3,0.8-0.4,1.5-0.4h4V7.4H2C1.3,7.4,0.8,7.3,0.5,7
		C0.2,6.7,0,6.4,0,5.9c0-0.4,0.2-0.8,0.5-1.1C0.8,4.6,1.3,4.5,2,4.5h17.2c4.1,0,7.4,1.2,9.9,3.6s3.8,5.2,3.8,8.4
		c0,1.9-0.4,3.6-1.2,5.1c-0.8,1.5-1.8,2.7-3,3.6c-1.8,1.3-3.6,2.3-5.4,2.9c-1.4,0.4-3,0.7-5.1,0.7H8.9z M8.9,25.8h9.4
		c2.2,0,4.2-0.5,6.1-1.5c1.9-1,3.3-2.2,4.2-3.6s1.3-2.8,1.3-4.3c0-2.3-1-4.4-3-6.3c-2-1.9-4.5-2.8-7.6-2.8H8.9V25.8z"/>
	<path d="M67,45.6v-4.3c-4.3,3.6-8.9,5.4-13.7,5.4c-3.5,0-6.3-0.9-8.3-2.7c-2-1.8-3-4-3-6.6c0-2.9,1.3-5.4,3.9-7.5
		c2.6-2.1,6.5-3.2,11.5-3.2c1.4,0,2.8,0.1,4.4,0.3c1.6,0.2,3.3,0.5,5.2,0.8v-4.8c0-1.6-0.8-3-2.3-4.2c-1.5-1.2-3.8-1.8-6.8-1.8
		c-2.3,0-5.5,0.7-9.7,2c-0.8,0.2-1.2,0.4-1.4,0.4c-0.4,0-0.7-0.1-1-0.4c-0.3-0.3-0.4-0.6-0.4-1.1c0-0.4,0.1-0.7,0.4-0.9
		c0.3-0.4,1.7-0.8,4-1.4c3.7-1,6.4-1.5,8.3-1.5c3.7,0,6.6,0.9,8.7,2.8c2.1,1.8,3.1,3.9,3.1,6.2v19.5h3.9c0.7,0,1.2,0.1,1.5,0.4
		c0.3,0.3,0.5,0.6,0.5,1.1c0,0.4-0.2,0.8-0.5,1.1c-0.3,0.3-0.8,0.4-1.5,0.4H67z M67,30.9c-1.4-0.4-2.8-0.7-4.4-0.9
		c-1.5-0.2-3.2-0.3-4.9-0.3c-4.3,0-7.6,0.9-10.1,2.8c-1.8,1.4-2.7,3-2.7,5c0,1.8,0.7,3.3,2.1,4.5c1.4,1.2,3.4,1.8,6.1,1.8
		c2.6,0,4.9-0.5,7.1-1.5c2.2-1,4.4-2.6,6.8-4.9V30.9z"/>
	<path d="M92.2,15.2v4.5c2.1-2.1,3.9-3.5,5.6-4.3c1.7-0.8,3.5-1.2,5.6-1.2c2.3,0,4.3,0.5,6.2,1.4c1.3,0.7,2.5,1.9,3.6,3.5
		c1.1,1.6,1.6,3.3,1.6,5v18.6h2.5c0.7,0,1.2,0.1,1.5,0.4c0.3,0.3,0.5,0.6,0.5,1.1c0,0.4-0.2,0.8-0.5,1.1c-0.3,0.3-0.8,0.4-1.5,0.4
		h-7.9c-0.7,0-1.2-0.1-1.5-0.4c-0.3-0.3-0.5-0.6-0.5-1.1c0-0.4,0.2-0.8,0.5-1.1c0.3-0.3,0.8-0.4,1.5-0.4h2.5V24.5
		c0-2.1-0.8-3.8-2.3-5.3c-1.5-1.4-3.6-2.2-6.1-2.2c-1.9,0-3.6,0.4-5.1,1.2c-1.4,0.8-3.5,2.7-6.1,5.9v18.5h3.3c0.7,0,1.2,0.1,1.5,0.4
		c0.3,0.3,0.5,0.6,0.5,1.1c0,0.4-0.2,0.8-0.5,1.1c-0.3,0.3-0.8,0.4-1.5,0.4h-9.6c-0.7,0-1.2-0.1-1.5-0.4c-0.3-0.3-0.5-0.6-0.5-1.1
		c0-0.4,0.2-0.8,0.5-1.1c0.3-0.3,0.8-0.4,1.5-0.4h3.3V18.1h-2.5c-0.7,0-1.2-0.1-1.5-0.4c-0.3-0.3-0.5-0.6-0.5-1.1
		c0-0.4,0.2-0.8,0.5-1.1c0.3-0.3,0.8-0.4,1.5-0.4H92.2z"/>
	<path d="M159.4,1.5v41.2h3.9c0.7,0,1.2,0.1,1.5,0.4c0.3,0.3,0.5,0.6,0.5,1.1c0,0.4-0.2,0.8-0.5,1.1c-0.3,0.3-0.8,0.4-1.5,0.4h-6.9
		v-5.9c-3.4,4.7-7.8,7-13,7c-2.7,0-5.2-0.7-7.7-2.1c-2.4-1.4-4.4-3.4-5.8-6.1c-1.4-2.6-2.1-5.3-2.1-8.1c0-2.8,0.7-5.5,2.1-8.1
		c1.4-2.6,3.4-4.6,5.8-6.1c2.4-1.4,5-2.1,7.7-2.1c5.2,0,9.5,2.3,13,7V4.5h-3.9c-0.7,0-1.2-0.1-1.5-0.4c-0.3-0.3-0.5-0.6-0.5-1.1
		c0-0.4,0.2-0.8,0.5-1.1c0.3-0.3,0.8-0.4,1.5-0.4H159.4z M156.4,30.4c0-3.7-1.3-6.9-3.8-9.5c-2.5-2.6-5.5-3.9-9-3.9
		c-3.5,0-6.5,1.3-9.1,3.9c-2.5,2.6-3.8,5.7-3.8,9.5c0,3.7,1.3,6.9,3.8,9.5c2.5,2.6,5.6,3.9,9.1,3.9c3.5,0,6.5-1.3,9-3.9
		C155.1,37.3,156.4,34.2,156.4,30.4z"/>
	<path d="M196.6,45.6v-4.3c-4.3,3.6-8.9,5.4-13.7,5.4c-3.5,0-6.3-0.9-8.3-2.7c-2-1.8-3-4-3-6.6c0-2.9,1.3-5.4,3.9-7.5
		c2.6-2.1,6.5-3.2,11.5-3.2c1.4,0,2.8,0.1,4.4,0.3c1.6,0.2,3.3,0.5,5.2,0.8v-4.8c0-1.6-0.8-3-2.3-4.2c-1.5-1.2-3.8-1.8-6.8-1.8
		c-2.3,0-5.5,0.7-9.7,2c-0.8,0.2-1.2,0.4-1.4,0.4c-0.4,0-0.7-0.1-1-0.4c-0.3-0.3-0.4-0.6-0.4-1.1c0-0.4,0.1-0.7,0.4-0.9
		c0.3-0.4,1.7-0.8,4-1.4c3.7-1,6.4-1.5,8.3-1.5c3.7,0,6.6,0.9,8.7,2.8c2.1,1.8,3.1,3.9,3.1,6.2v19.5h3.9c0.7,0,1.2,0.1,1.5,0.4
		c0.3,0.3,0.5,0.6,0.5,1.1c0,0.4-0.2,0.8-0.5,1.1c-0.3,0.3-0.8,0.4-1.5,0.4H196.6z M196.6,30.9c-1.4-0.4-2.8-0.7-4.4-0.9
		c-1.5-0.2-3.2-0.3-4.9-0.3c-4.3,0-7.6,0.9-10.1,2.8c-1.8,1.4-2.7,3-2.7,5c0,1.8,0.7,3.3,2.1,4.5c1.4,1.2,3.4,1.8,6.1,1.8
		c2.6,0,4.9-0.5,7.1-1.5c2.2-1,4.4-2.6,6.8-4.9V30.9z"/>
	<path d="M230.7,37.1h1.3c1.3,0,2.4,0.5,3.4,1.4c0.9,0.9,1.4,2,1.4,3.4c0,1.4-0.5,2.5-1.4,3.4s-2.1,1.4-3.4,1.4h-1.3
		c-1.3,0-2.4-0.5-3.4-1.4c-0.9-0.9-1.4-2-1.4-3.4c0-1.4,0.5-2.5,1.4-3.4S229.4,37.1,230.7,37.1z"/>
	<path d="M284.7,45.6l-3.7,0l-6.5-19l-6.5,19l-3.7,0l-6.1-27.5h-1.4c-0.7,0-1.2-0.1-1.5-0.4c-0.3-0.3-0.5-0.6-0.5-1.1
		c0-0.4,0.2-0.8,0.5-1.1c0.3-0.3,0.8-0.4,1.5-0.4h8.1c0.7,0,1.2,0.1,1.5,0.4c0.3,0.3,0.5,0.6,0.5,1.1c0,0.4-0.2,0.8-0.5,1.1
		c-0.3,0.3-0.8,0.4-1.5,0.4h-3.8l5.2,23.4l6.3-18.7h3.5l6.5,18.7l5-23.4h-3.7c-0.7,0-1.2-0.1-1.5-0.4s-0.5-0.6-0.5-1.1
		c0-0.4,0.2-0.8,0.5-1.1s0.8-0.4,1.5-0.4h8.1c0.7,0,1.2,0.1,1.5,0.4s0.5,0.6,0.5,1.1c0,0.4-0.2,0.8-0.5,1.1s-0.8,0.4-1.5,0.4h-1.4
		L284.7,45.6z"/>
	<path d="M319.3,15.2v27.5h11.6c0.7,0,1.2,0.1,1.5,0.4c0.3,0.3,0.5,0.6,0.5,1.1c0,0.4-0.2,0.8-0.5,1.1s-0.8,0.4-1.5,0.4h-26.2
		c-0.7,0-1.2-0.1-1.5-0.4s-0.5-0.6-0.5-1.1c0-0.4,0.2-0.8,0.5-1.1c0.3-0.3,0.8-0.4,1.5-0.4h11.6V18.1h-8.6c-0.7,0-1.2-0.1-1.5-0.4
		s-0.5-0.6-0.5-1.1c0-0.4,0.2-0.8,0.5-1.1s0.8-0.4,1.5-0.4H319.3z M319.2,0v7.6h-4.4V0H319.2z"/>
	<path d="M355,32.4v13.1H348c-0.7,0-1.2-0.1-1.5-0.4s-0.5-0.6-0.5-1.1c0-0.4,0.2-0.8,0.5-1.1c0.3-0.3,0.8-0.4,1.5-0.4h4V4.5h-4
		c-0.7,0-1.2-0.1-1.5-0.4s-0.5-0.6-0.5-1.1c0-0.4,0.2-0.8,0.5-1.1s0.8-0.4,1.5-0.4h6.9v27.2l12.6-10.5H366c-0.7,0-1.2-0.1-1.5-0.4
		s-0.5-0.6-0.5-1.1c0-0.4,0.2-0.8,0.5-1.1s0.8-0.4,1.5-0.4h9.5c0.7,0,1.2,0.1,1.5,0.4s0.5,0.6,0.5,1.1c0,0.4-0.2,0.8-0.5,1.1
		s-0.8,0.4-1.5,0.4h-3.4l-11.5,9.6l14.6,14.9h3.4c0.7,0,1.2,0.1,1.5,0.4c0.3,0.3,0.5,0.6,0.5,1.1c0,0.4-0.2,0.8-0.5,1.1
		s-0.8,0.4-1.5,0.4H369c-0.7,0-1.2-0.1-1.5-0.4s-0.5-0.6-0.5-1.1c0-0.4,0.2-0.8,0.5-1.1c0.3-0.3,0.8-0.4,1.5-0.4h2.1l-12.7-13
		L355,32.4z"/>
	<path d="M405.7,15.2v27.5h11.6c0.7,0,1.2,0.1,1.5,0.4c0.3,0.3,0.5,0.6,0.5,1.1c0,0.4-0.2,0.8-0.5,1.1s-0.8,0.4-1.5,0.4h-26.2
		c-0.7,0-1.2-0.1-1.5-0.4s-0.5-0.6-0.5-1.1c0-0.4,0.2-0.8,0.5-1.1c0.3-0.3,0.8-0.4,1.5-0.4h11.6V18.1h-8.6c-0.7,0-1.2-0.1-1.5-0.4
		s-0.5-0.6-0.5-1.1c0-0.4,0.2-0.8,0.5-1.1s0.8-0.4,1.5-0.4H405.7z M405.6,0v7.6h-4.4V0H405.6z"/>
</g>
</svg>
